# xmcd
#
# Track frame offsets:
#	150
#	18634
#	32236
#	44562
#	58478
#	78007
#	93679
#	110344
#	123997
#	140470
#	163908
#	182646
#	202315
#	219064
#
# Disc length: 3213 seconds
#
# Revision: 1
# Processed by: cddbd v1.5.2PL0 Copyright (c) Steve Scherf et al.
# Submitted via: audiograbber 1.83.01
#
DISCID=ce0c8b0e
DTITLE=Tallari Ja Anssi Kansala - Rautavaaran Jäljillä
DYEAR=2014
DGENRE=Folk
TTITLE0=Juokse Sinä Humma
TTITLE1=Kulkurin Iltatähti
TTITLE2=Danakil
TTITLE3=Huutolaispojan Laulu
TTITLE4=Isoisan Olkihattu
TTITLE5=Kulkuripoika
TTITLE6=Leningrad
TTITLE7=Tukkipoika Se Lautallansa
TTITLE8=Päivänsäde Ja Menninkäinen
TTITLE9=Lauluni Aiheet
TTITLE10=Pelimannin Penkilla
TTITLE11=Rakovalkealla
TTITLE12=Lauantai Mannakorvella
TTITLE13=Sininen Uni
EXTD=TR.
EXTT0=
EXTT1=
EXTT2=
EXTT3=
EXTT4=
EXTT5=
EXTT6=
EXTT7=
EXTT8=
EXTT9=
EXTT10=
EXTT11=
EXTT12=
EXTT13=
PLAYORDER=
